<?xml version="1.0" encoding="UTF-8"?>
<svg width="48px" height="48px" viewBox="0 0 48 48" version="1.1" xmlns="http://www.w3.org/2000/svg" xmlns:xlink="http://www.w3.org/1999/xlink">
    <!-- Generator: Sketch 60.1 (88133) - https://sketch.com -->
    <title>Untitled</title>
    <desc>Created with Sketch.</desc>
    <g id="Page-1" stroke="none" stroke-width="1" fill="none" fill-rule="evenodd">
        <g id="so-icon" transform="translate(12.000000, 10.000000)" fill-rule="nonzero">
            <polygon id="Path" fill="#BCBBBB" points="20.4517986 26.5080906 20.4517986 19 23 19 23 29 0 29 0 19 2.54820144 19 2.54820144 26.5080906"></polygon>
            <path d="M5.27729636,18.0590717 L18.3795494,20.7257384 L18.9341421,18.1603376 L5.83188908,15.4936709 L5.27729636,18.0590717 L5.27729636,18.0590717 Z M7.01039861,11.9831224 L19.1421144,17.4852321 L20.2512998,15.1223629 L8.11958406,9.58649789 L7.01039861,11.9831224 Z M10.372617,6.17721519 L20.6672444,14.5147679 L22.3656846,12.5232068 L12.0710572,4.18565401 L10.372617,6.17721519 L10.372617,6.17721519 Z M17.0277296,0 L14.8786828,1.55274262 L22.8509532,12.0168776 L25,10.464135 L17.0277296,0 Z M5,24 L18.3795494,24 L18.3795494,21.4008439 L5,21.4008439 L5,24 Z" id="Shape" fill="#909090"></path>
        </g>
    </g>
</svg>